<svg width="133" height="115" viewBox="0 0 133 115" fill="none" xmlns="http://www.w3.org/2000/svg">
<g opacity="0.3">
<mask id="mask0_51_2" style="mask-type:alpha" maskUnits="userSpaceOnUse" x="0" y="0" width="11" height="11">
<path d="M5.26806 10.4249C8.17754 10.4249 10.5361 8.09118 10.5361 5.21243C10.5361 2.33368 8.17754 0 5.26806 0C2.35859 0 0 2.33368 0 5.21243C0 8.09118 2.35859 10.4249 5.26806 10.4249Z" fill="url(#paint0_linear_51_2)"/>
</mask>
<g mask="url(#mask0_51_2)">
<path d="M5.26806 10.4249C8.17754 10.4249 10.5361 8.09118 10.5361 5.21243C10.5361 2.33368 8.17754 0 5.26806 0C2.35859 0 0 2.33368 0 5.21243C0 8.09118 2.35859 10.4249 5.26806 10.4249Z" fill="url(#paint1_linear_51_2)"/>
</g>
<mask id="mask1_51_2" style="mask-type:alpha" maskUnits="userSpaceOnUse" x="30" y="0" width="12" height="11">
<path d="M35.7792 10.4249C38.6887 10.4249 41.0474 8.09118 41.0474 5.21243C41.0474 2.33368 38.6887 0 35.7792 0C32.8697 0 30.5111 2.33368 30.5111 5.21243C30.5111 8.09118 32.8697 10.4249 35.7792 10.4249Z" fill="url(#paint2_linear_51_2)"/>
</mask>
<g mask="url(#mask1_51_2)">
<path d="M35.7792 10.4249C38.6887 10.4249 41.0474 8.09118 41.0474 5.21243C41.0474 2.33368 38.6887 0 35.7792 0C32.8697 0 30.5111 2.33368 30.5111 5.21243C30.5111 8.09118 32.8697 10.4249 35.7792 10.4249Z" fill="url(#paint3_linear_51_2)"/>
</g>
<mask id="mask2_51_2" style="mask-type:alpha" maskUnits="userSpaceOnUse" x="61" y="0" width="11" height="11">
<path d="M66.2905 10.4249C69.2 10.4249 71.5587 8.09118 71.5587 5.21243C71.5587 2.33368 69.2 0 66.2905 0C63.381 0 61.0224 2.33368 61.0224 5.21243C61.0224 8.09118 63.381 10.4249 66.2905 10.4249Z" fill="url(#paint4_linear_51_2)"/>
</mask>
<g mask="url(#mask2_51_2)">
<path d="M66.2905 10.4249C69.2 10.4249 71.5587 8.09118 71.5587 5.21243C71.5587 2.33368 69.2 0 66.2905 0C63.381 0 61.0224 2.33368 61.0224 5.21243C61.0224 8.09118 63.381 10.4249 66.2905 10.4249Z" fill="url(#paint5_linear_51_2)"/>
</g>
<mask id="mask3_51_2" style="mask-type:alpha" maskUnits="userSpaceOnUse" x="91" y="0" width="12" height="11">
<path d="M96.8017 10.4249C99.7111 10.4249 102.07 8.09118 102.07 5.21243C102.07 2.33368 99.7111 0 96.8017 0C93.8923 0 91.5337 2.33368 91.5337 5.21243C91.5337 8.09118 93.8923 10.4249 96.8017 10.4249Z" fill="url(#paint6_linear_51_2)"/>
</mask>
<g mask="url(#mask3_51_2)">
<path d="M96.8017 10.4249C99.7111 10.4249 102.07 8.09118 102.07 5.21243C102.07 2.33368 99.7111 0 96.8017 0C93.8923 0 91.5337 2.33368 91.5337 5.21243C91.5337 8.09118 93.8923 10.4249 96.8017 10.4249Z" fill="url(#paint7_linear_51_2)"/>
</g>
<mask id="mask4_51_2" style="mask-type:alpha" maskUnits="userSpaceOnUse" x="122" y="0" width="11" height="11">
<path d="M127.313 10.4249C130.222 10.4249 132.581 8.09118 132.581 5.21243C132.581 2.33368 130.222 0 127.313 0C124.403 0 122.045 2.33368 122.045 5.21243C122.045 8.09118 124.403 10.4249 127.313 10.4249Z" fill="url(#paint8_linear_51_2)"/>
</mask>
<g mask="url(#mask4_51_2)">
<path d="M127.313 10.4249C130.222 10.4249 132.581 8.09118 132.581 5.21243C132.581 2.33368 130.222 0 127.313 0C124.403 0 122.045 2.33368 122.045 5.21243C122.045 8.09118 124.403 10.4249 127.313 10.4249Z" fill="url(#paint9_linear_51_2)"/>
</g>
<mask id="mask5_51_2" style="mask-type:alpha" maskUnits="userSpaceOnUse" x="0" y="26" width="11" height="11">
<path d="M5.26806 36.5958C8.17754 36.5958 10.5361 34.2621 10.5361 31.3834C10.5361 28.5046 8.17754 26.1709 5.26806 26.1709C2.35859 26.1709 0 28.5046 0 31.3834C0 34.2621 2.35859 36.5958 5.26806 36.5958Z" fill="url(#paint10_linear_51_2)"/>
</mask>
<g mask="url(#mask5_51_2)">
<path d="M5.26806 36.5958C8.17754 36.5958 10.5361 34.2621 10.5361 31.3834C10.5361 28.5046 8.17754 26.1709 5.26806 26.1709C2.35859 26.1709 0 28.5046 0 31.3834C0 34.2621 2.35859 36.5958 5.26806 36.5958Z" fill="url(#paint11_linear_51_2)"/>
</g>
<mask id="mask6_51_2" style="mask-type:alpha" maskUnits="userSpaceOnUse" x="30" y="26" width="12" height="11">
<path d="M35.7792 36.5958C38.6887 36.5958 41.0474 34.2621 41.0474 31.3834C41.0474 28.5046 38.6887 26.1709 35.7792 26.1709C32.8697 26.1709 30.5111 28.5046 30.5111 31.3834C30.5111 34.2621 32.8697 36.5958 35.7792 36.5958Z" fill="url(#paint12_linear_51_2)"/>
</mask>
<g mask="url(#mask6_51_2)">
<path d="M35.7792 36.5958C38.6887 36.5958 41.0474 34.2621 41.0474 31.3834C41.0474 28.5046 38.6887 26.1709 35.7792 26.1709C32.8697 26.1709 30.5111 28.5046 30.5111 31.3834C30.5111 34.2621 32.8697 36.5958 35.7792 36.5958Z" fill="url(#paint13_linear_51_2)"/>
</g>
<mask id="mask7_51_2" style="mask-type:alpha" maskUnits="userSpaceOnUse" x="61" y="26" width="11" height="11">
<path d="M66.2905 36.5958C69.2 36.5958 71.5587 34.2621 71.5587 31.3834C71.5587 28.5046 69.2 26.1709 66.2905 26.1709C63.381 26.1709 61.0224 28.5046 61.0224 31.3834C61.0224 34.2621 63.381 36.5958 66.2905 36.5958Z" fill="url(#paint14_linear_51_2)"/>
</mask>
<g mask="url(#mask7_51_2)">
<path d="M66.2905 36.5958C69.2 36.5958 71.5587 34.2621 71.5587 31.3834C71.5587 28.5046 69.2 26.1709 66.2905 26.1709C63.381 26.1709 61.0224 28.5046 61.0224 31.3834C61.0224 34.2621 63.381 36.5958 66.2905 36.5958Z" fill="url(#paint15_linear_51_2)"/>
</g>
<mask id="mask8_51_2" style="mask-type:alpha" maskUnits="userSpaceOnUse" x="91" y="26" width="12" height="11">
<path d="M96.8017 36.5958C99.7111 36.5958 102.07 34.2621 102.07 31.3834C102.07 28.5046 99.7111 26.1709 96.8017 26.1709C93.8923 26.1709 91.5337 28.5046 91.5337 31.3834C91.5337 34.2621 93.8923 36.5958 96.8017 36.5958Z" fill="url(#paint16_linear_51_2)"/>
</mask>
<g mask="url(#mask8_51_2)">
<path d="M96.8017 36.5958C99.7111 36.5958 102.07 34.2621 102.07 31.3834C102.07 28.5046 99.7111 26.1709 96.8017 26.1709C93.8923 26.1709 91.5337 28.5046 91.5337 31.3834C91.5337 34.2621 93.8923 36.5958 96.8017 36.5958Z" fill="url(#paint17_linear_51_2)"/>
</g>
<mask id="mask9_51_2" style="mask-type:alpha" maskUnits="userSpaceOnUse" x="122" y="26" width="11" height="11">
<path d="M127.313 36.5958C130.222 36.5958 132.581 34.2621 132.581 31.3834C132.581 28.5046 130.222 26.1709 127.313 26.1709C124.403 26.1709 122.045 28.5046 122.045 31.3834C122.045 34.2621 124.403 36.5958 127.313 36.5958Z" fill="url(#paint18_linear_51_2)"/>
</mask>
<g mask="url(#mask9_51_2)">
<path d="M127.313 36.5958C130.222 36.5958 132.581 34.2621 132.581 31.3834C132.581 28.5046 130.222 26.1709 127.313 26.1709C124.403 26.1709 122.045 28.5046 122.045 31.3834C122.045 34.2621 124.403 36.5958 127.313 36.5958Z" fill="url(#paint19_linear_51_2)"/>
</g>
<mask id="mask10_51_2" style="mask-type:alpha" maskUnits="userSpaceOnUse" x="0" y="52" width="11" height="11">
<path d="M5.26806 62.7125C8.17754 62.7125 10.5361 60.3788 10.5361 57.5C10.5361 54.6212 8.17754 52.2875 5.26806 52.2875C2.35859 52.2875 0 54.6212 0 57.5C0 60.3788 2.35859 62.7125 5.26806 62.7125Z" fill="url(#paint20_linear_51_2)"/>
</mask>
<g mask="url(#mask10_51_2)">
<path d="M5.26806 62.7125C8.17754 62.7125 10.5361 60.3788 10.5361 57.5C10.5361 54.6212 8.17754 52.2875 5.26806 52.2875C2.35859 52.2875 0 54.6212 0 57.5C0 60.3788 2.35859 62.7125 5.26806 62.7125Z" fill="url(#paint21_linear_51_2)"/>
</g>
<mask id="mask11_51_2" style="mask-type:alpha" maskUnits="userSpaceOnUse" x="30" y="52" width="12" height="11">
<path d="M35.7792 62.7125C38.6887 62.7125 41.0474 60.3788 41.0474 57.5C41.0474 54.6212 38.6887 52.2875 35.7792 52.2875C32.8697 52.2875 30.5111 54.6212 30.5111 57.5C30.5111 60.3788 32.8697 62.7125 35.7792 62.7125Z" fill="url(#paint22_linear_51_2)"/>
</mask>
<g mask="url(#mask11_51_2)">
<path d="M35.7792 62.7125C38.6887 62.7125 41.0474 60.3788 41.0474 57.5C41.0474 54.6212 38.6887 52.2875 35.7792 52.2875C32.8697 52.2875 30.5111 54.6212 30.5111 57.5C30.5111 60.3788 32.8697 62.7125 35.7792 62.7125Z" fill="url(#paint23_linear_51_2)"/>
</g>
<mask id="mask12_51_2" style="mask-type:alpha" maskUnits="userSpaceOnUse" x="61" y="52" width="11" height="11">
<path d="M66.2905 62.7125C69.2 62.7125 71.5587 60.3788 71.5587 57.5C71.5587 54.6212 69.2 52.2875 66.2905 52.2875C63.381 52.2875 61.0224 54.6212 61.0224 57.5C61.0224 60.3788 63.381 62.7125 66.2905 62.7125Z" fill="url(#paint24_linear_51_2)"/>
</mask>
<g mask="url(#mask12_51_2)">
<path d="M66.2905 62.7125C69.2 62.7125 71.5587 60.3788 71.5587 57.5C71.5587 54.6212 69.2 52.2875 66.2905 52.2875C63.381 52.2875 61.0224 54.6212 61.0224 57.5C61.0224 60.3788 63.381 62.7125 66.2905 62.7125Z" fill="url(#paint25_linear_51_2)"/>
</g>
<mask id="mask13_51_2" style="mask-type:alpha" maskUnits="userSpaceOnUse" x="91" y="52" width="12" height="11">
<path d="M96.8017 62.7125C99.7111 62.7125 102.07 60.3788 102.07 57.5C102.07 54.6212 99.7111 52.2875 96.8017 52.2875C93.8923 52.2875 91.5337 54.6212 91.5337 57.5C91.5337 60.3788 93.8923 62.7125 96.8017 62.7125Z" fill="url(#paint26_linear_51_2)"/>
</mask>
<g mask="url(#mask13_51_2)">
<path d="M96.8017 62.7125C99.7111 62.7125 102.07 60.3788 102.07 57.5C102.07 54.6212 99.7111 52.2875 96.8017 52.2875C93.8923 52.2875 91.5337 54.6212 91.5337 57.5C91.5337 60.3788 93.8923 62.7125 96.8017 62.7125Z" fill="url(#paint27_linear_51_2)"/>
</g>
<mask id="mask14_51_2" style="mask-type:alpha" maskUnits="userSpaceOnUse" x="122" y="52" width="11" height="11">
<path d="M127.313 62.7125C130.222 62.7125 132.581 60.3788 132.581 57.5C132.581 54.6212 130.222 52.2875 127.313 52.2875C124.403 52.2875 122.045 54.6212 122.045 57.5C122.045 60.3788 124.403 62.7125 127.313 62.7125Z" fill="url(#paint28_linear_51_2)"/>
</mask>
<g mask="url(#mask14_51_2)">
<path d="M127.313 62.7125C130.222 62.7125 132.581 60.3788 132.581 57.5C132.581 54.6212 130.222 52.2875 127.313 52.2875C124.403 52.2875 122.045 54.6212 122.045 57.5C122.045 60.3788 124.403 62.7125 127.313 62.7125Z" fill="url(#paint29_linear_51_2)"/>
</g>
<mask id="mask15_51_2" style="mask-type:alpha" maskUnits="userSpaceOnUse" x="0" y="78" width="11" height="11">
<path d="M5.26806 88.8834C8.17754 88.8834 10.5361 86.5496 10.5361 83.6708C10.5361 80.792 8.17754 78.4583 5.26806 78.4583C2.35859 78.4583 0 80.792 0 83.6708C0 86.5496 2.35859 88.8834 5.26806 88.8834Z" fill="url(#paint30_linear_51_2)"/>
</mask>
<g mask="url(#mask15_51_2)">
<path d="M5.26806 88.8834C8.17754 88.8834 10.5361 86.5496 10.5361 83.6708C10.5361 80.792 8.17754 78.4583 5.26806 78.4583C2.35859 78.4583 0 80.792 0 83.6708C0 86.5496 2.35859 88.8834 5.26806 88.8834Z" fill="url(#paint31_linear_51_2)"/>
</g>
<mask id="mask16_51_2" style="mask-type:alpha" maskUnits="userSpaceOnUse" x="30" y="78" width="12" height="11">
<path d="M35.7792 88.8834C38.6887 88.8834 41.0474 86.5496 41.0474 83.6708C41.0474 80.792 38.6887 78.4583 35.7792 78.4583C32.8697 78.4583 30.5111 80.792 30.5111 83.6708C30.5111 86.5496 32.8697 88.8834 35.7792 88.8834Z" fill="url(#paint32_linear_51_2)"/>
</mask>
<g mask="url(#mask16_51_2)">
<path d="M35.7792 88.8834C38.6887 88.8834 41.0474 86.5496 41.0474 83.6708C41.0474 80.792 38.6887 78.4583 35.7792 78.4583C32.8697 78.4583 30.5111 80.792 30.5111 83.6708C30.5111 86.5496 32.8697 88.8834 35.7792 88.8834Z" fill="url(#paint33_linear_51_2)"/>
</g>
<mask id="mask17_51_2" style="mask-type:alpha" maskUnits="userSpaceOnUse" x="61" y="78" width="11" height="11">
<path d="M66.2905 88.8834C69.2 88.8834 71.5587 86.5496 71.5587 83.6708C71.5587 80.792 69.2 78.4583 66.2905 78.4583C63.381 78.4583 61.0224 80.792 61.0224 83.6708C61.0224 86.5496 63.381 88.8834 66.2905 88.8834Z" fill="url(#paint34_linear_51_2)"/>
</mask>
<g mask="url(#mask17_51_2)">
<path d="M66.2905 88.8834C69.2 88.8834 71.5587 86.5496 71.5587 83.6708C71.5587 80.792 69.2 78.4583 66.2905 78.4583C63.381 78.4583 61.0224 80.792 61.0224 83.6708C61.0224 86.5496 63.381 88.8834 66.2905 88.8834Z" fill="url(#paint35_linear_51_2)"/>
</g>
<mask id="mask18_51_2" style="mask-type:alpha" maskUnits="userSpaceOnUse" x="91" y="78" width="12" height="11">
<path d="M96.8017 88.8834C99.7111 88.8834 102.07 86.5496 102.07 83.6708C102.07 80.792 99.7111 78.4583 96.8017 78.4583C93.8923 78.4583 91.5337 80.792 91.5337 83.6708C91.5337 86.5496 93.8923 88.8834 96.8017 88.8834Z" fill="url(#paint36_linear_51_2)"/>
</mask>
<g mask="url(#mask18_51_2)">
<path d="M96.8017 88.8834C99.7111 88.8834 102.07 86.5496 102.07 83.6708C102.07 80.792 99.7111 78.4583 96.8017 78.4583C93.8923 78.4583 91.5337 80.792 91.5337 83.6708C91.5337 86.5496 93.8923 88.8834 96.8017 88.8834Z" fill="url(#paint37_linear_51_2)"/>
</g>
<mask id="mask19_51_2" style="mask-type:alpha" maskUnits="userSpaceOnUse" x="122" y="78" width="11" height="11">
<path d="M127.313 88.8834C130.222 88.8834 132.581 86.5496 132.581 83.6708C132.581 80.792 130.222 78.4583 127.313 78.4583C124.403 78.4583 122.045 80.792 122.045 83.6708C122.045 86.5496 124.403 88.8834 127.313 88.8834Z" fill="url(#paint38_linear_51_2)"/>
</mask>
<g mask="url(#mask19_51_2)">
<path d="M127.313 88.8834C130.222 88.8834 132.581 86.5496 132.581 83.6708C132.581 80.792 130.222 78.4583 127.313 78.4583C124.403 78.4583 122.045 80.792 122.045 83.6708C122.045 86.5496 124.403 88.8834 127.313 88.8834Z" fill="url(#paint39_linear_51_2)"/>
</g>
<mask id="mask20_51_2" style="mask-type:alpha" maskUnits="userSpaceOnUse" x="0" y="104" width="11" height="11">
<path d="M5.26806 115C8.17754 115 10.5361 112.666 10.5361 109.788C10.5361 106.909 8.17754 104.575 5.26806 104.575C2.35859 104.575 0 106.909 0 109.788C0 112.666 2.35859 115 5.26806 115Z" fill="url(#paint40_linear_51_2)"/>
</mask>
<g mask="url(#mask20_51_2)">
<path d="M5.26806 115C8.17754 115 10.5361 112.666 10.5361 109.788C10.5361 106.909 8.17754 104.575 5.26806 104.575C2.35859 104.575 0 106.909 0 109.788C0 112.666 2.35859 115 5.26806 115Z" fill="url(#paint41_linear_51_2)"/>
</g>
<mask id="mask21_51_2" style="mask-type:alpha" maskUnits="userSpaceOnUse" x="30" y="104" width="12" height="11">
<path d="M35.7792 115C38.6887 115 41.0474 112.666 41.0474 109.788C41.0474 106.909 38.6887 104.575 35.7792 104.575C32.8697 104.575 30.5111 106.909 30.5111 109.788C30.5111 112.666 32.8697 115 35.7792 115Z" fill="url(#paint42_linear_51_2)"/>
</mask>
<g mask="url(#mask21_51_2)">
<path d="M35.7792 115C38.6887 115 41.0474 112.666 41.0474 109.788C41.0474 106.909 38.6887 104.575 35.7792 104.575C32.8697 104.575 30.5111 106.909 30.5111 109.788C30.5111 112.666 32.8697 115 35.7792 115Z" fill="url(#paint43_linear_51_2)"/>
</g>
<mask id="mask22_51_2" style="mask-type:alpha" maskUnits="userSpaceOnUse" x="61" y="104" width="11" height="11">
<path d="M66.2905 115C69.2 115 71.5587 112.666 71.5587 109.788C71.5587 106.909 69.2 104.575 66.2905 104.575C63.381 104.575 61.0224 106.909 61.0224 109.788C61.0224 112.666 63.381 115 66.2905 115Z" fill="url(#paint44_linear_51_2)"/>
</mask>
<g mask="url(#mask22_51_2)">
<path d="M66.2905 115C69.2 115 71.5587 112.666 71.5587 109.788C71.5587 106.909 69.2 104.575 66.2905 104.575C63.381 104.575 61.0224 106.909 61.0224 109.788C61.0224 112.666 63.381 115 66.2905 115Z" fill="url(#paint45_linear_51_2)"/>
</g>
<mask id="mask23_51_2" style="mask-type:alpha" maskUnits="userSpaceOnUse" x="91" y="104" width="12" height="11">
<path d="M96.8017 115C99.7111 115 102.07 112.666 102.07 109.788C102.07 106.909 99.7111 104.575 96.8017 104.575C93.8923 104.575 91.5337 106.909 91.5337 109.788C91.5337 112.666 93.8923 115 96.8017 115Z" fill="url(#paint46_linear_51_2)"/>
</mask>
<g mask="url(#mask23_51_2)">
<path d="M96.8017 115C99.7111 115 102.07 112.666 102.07 109.788C102.07 106.909 99.7111 104.575 96.8017 104.575C93.8923 104.575 91.5337 106.909 91.5337 109.788C91.5337 112.666 93.8923 115 96.8017 115Z" fill="url(#paint47_linear_51_2)"/>
</g>
<mask id="mask24_51_2" style="mask-type:alpha" maskUnits="userSpaceOnUse" x="122" y="104" width="11" height="11">
<path d="M127.313 115C130.222 115 132.581 112.666 132.581 109.788C132.581 106.909 130.222 104.575 127.313 104.575C124.403 104.575 122.045 106.909 122.045 109.788C122.045 112.666 124.403 115 127.313 115Z" fill="url(#paint48_linear_51_2)"/>
</mask>
<g mask="url(#mask24_51_2)">
<path d="M127.313 115C130.222 115 132.581 112.666 132.581 109.788C132.581 106.909 130.222 104.575 127.313 104.575C124.403 104.575 122.045 106.909 122.045 109.788C122.045 112.666 124.403 115 127.313 115Z" fill="url(#paint49_linear_51_2)"/>
</g>
</g>
<defs>
<linearGradient id="paint0_linear_51_2" x1="55.4134" y1="131.133" x2="-15.5924" y2="-51.0354" gradientUnits="userSpaceOnUse">
<stop/>
<stop offset="1" stop-color="white"/>
</linearGradient>
<linearGradient id="paint1_linear_51_2" x1="55.4134" y1="131.133" x2="-15.5924" y2="-51.0354" gradientUnits="userSpaceOnUse">
<stop stop-color="#97C3F9"/>
<stop offset="1" stop-color="#93C1F9"/>
</linearGradient>
<linearGradient id="paint2_linear_51_2" x1="81.8176" y1="120.842" x2="10.8123" y2="-61.3271" gradientUnits="userSpaceOnUse">
<stop/>
<stop offset="1" stop-color="white"/>
</linearGradient>
<linearGradient id="paint3_linear_51_2" x1="81.8176" y1="120.842" x2="10.8123" y2="-61.3271" gradientUnits="userSpaceOnUse">
<stop stop-color="#97C3F9"/>
<stop offset="1" stop-color="#93C1F9"/>
</linearGradient>
<linearGradient id="paint4_linear_51_2" x1="108.221" y1="110.551" x2="37.216" y2="-71.6184" gradientUnits="userSpaceOnUse">
<stop/>
<stop offset="1" stop-color="white"/>
</linearGradient>
<linearGradient id="paint5_linear_51_2" x1="108.221" y1="110.551" x2="37.216" y2="-71.6184" gradientUnits="userSpaceOnUse">
<stop stop-color="#97C3F9"/>
<stop offset="1" stop-color="#93C1F9"/>
</linearGradient>
<linearGradient id="paint6_linear_51_2" x1="134.624" y1="100.259" x2="63.6172" y2="-81.9091" gradientUnits="userSpaceOnUse">
<stop/>
<stop offset="1" stop-color="white"/>
</linearGradient>
<linearGradient id="paint7_linear_51_2" x1="134.624" y1="100.259" x2="63.6172" y2="-81.9091" gradientUnits="userSpaceOnUse">
<stop stop-color="#97C3F9"/>
<stop offset="1" stop-color="#93C1F9"/>
</linearGradient>
<linearGradient id="paint8_linear_51_2" x1="161.028" y1="89.9677" x2="90.0228" y2="-92.2017" gradientUnits="userSpaceOnUse">
<stop/>
<stop offset="1" stop-color="white"/>
</linearGradient>
<linearGradient id="paint9_linear_51_2" x1="161.028" y1="89.9677" x2="90.0228" y2="-92.2017" gradientUnits="userSpaceOnUse">
<stop stop-color="#97C3F9"/>
<stop offset="1" stop-color="#93C1F9"/>
</linearGradient>
<linearGradient id="paint10_linear_51_2" x1="46.4034" y1="134.646" x2="-24.6025" y2="-47.5227" gradientUnits="userSpaceOnUse">
<stop/>
<stop offset="1" stop-color="white"/>
</linearGradient>
<linearGradient id="paint11_linear_51_2" x1="46.4034" y1="134.646" x2="-24.6025" y2="-47.5227" gradientUnits="userSpaceOnUse">
<stop stop-color="#97C3F9"/>
<stop offset="1" stop-color="#93C1F9"/>
</linearGradient>
<linearGradient id="paint12_linear_51_2" x1="72.8072" y1="124.354" x2="1.80196" y2="-57.8152" gradientUnits="userSpaceOnUse">
<stop/>
<stop offset="1" stop-color="white"/>
</linearGradient>
<linearGradient id="paint13_linear_51_2" x1="72.8072" y1="124.354" x2="1.80196" y2="-57.8152" gradientUnits="userSpaceOnUse">
<stop stop-color="#97C3F9"/>
<stop offset="1" stop-color="#93C1F9"/>
</linearGradient>
<linearGradient id="paint14_linear_51_2" x1="99.2107" y1="114.063" x2="28.2055" y2="-68.1066" gradientUnits="userSpaceOnUse">
<stop/>
<stop offset="1" stop-color="white"/>
</linearGradient>
<linearGradient id="paint15_linear_51_2" x1="99.2107" y1="114.063" x2="28.2055" y2="-68.1066" gradientUnits="userSpaceOnUse">
<stop stop-color="#97C3F9"/>
<stop offset="1" stop-color="#93C1F9"/>
</linearGradient>
<linearGradient id="paint16_linear_51_2" x1="125.614" y1="103.771" x2="54.607" y2="-78.397" gradientUnits="userSpaceOnUse">
<stop/>
<stop offset="1" stop-color="white"/>
</linearGradient>
<linearGradient id="paint17_linear_51_2" x1="125.614" y1="103.771" x2="54.607" y2="-78.397" gradientUnits="userSpaceOnUse">
<stop stop-color="#97C3F9"/>
<stop offset="1" stop-color="#93C1F9"/>
</linearGradient>
<linearGradient id="paint18_linear_51_2" x1="152.018" y1="93.4798" x2="81.0125" y2="-88.6895" gradientUnits="userSpaceOnUse">
<stop/>
<stop offset="1" stop-color="white"/>
</linearGradient>
<linearGradient id="paint19_linear_51_2" x1="152.018" y1="93.4798" x2="81.0125" y2="-88.6895" gradientUnits="userSpaceOnUse">
<stop stop-color="#97C3F9"/>
<stop offset="1" stop-color="#93C1F9"/>
</linearGradient>
<linearGradient id="paint20_linear_51_2" x1="37.393" y1="138.159" x2="-33.6143" y2="-44.0116" gradientUnits="userSpaceOnUse">
<stop/>
<stop offset="1" stop-color="white"/>
</linearGradient>
<linearGradient id="paint21_linear_51_2" x1="37.393" y1="138.159" x2="-33.6143" y2="-44.0116" gradientUnits="userSpaceOnUse">
<stop stop-color="#97C3F9"/>
<stop offset="1" stop-color="#93C1F9"/>
</linearGradient>
<linearGradient id="paint22_linear_51_2" x1="63.7969" y1="127.867" x2="-7.20985" y2="-54.3038" gradientUnits="userSpaceOnUse">
<stop/>
<stop offset="1" stop-color="white"/>
</linearGradient>
<linearGradient id="paint23_linear_51_2" x1="63.7969" y1="127.867" x2="-7.20985" y2="-54.3038" gradientUnits="userSpaceOnUse">
<stop stop-color="#97C3F9"/>
<stop offset="1" stop-color="#93C1F9"/>
</linearGradient>
<linearGradient id="paint24_linear_51_2" x1="90.2004" y1="117.575" x2="19.1938" y2="-64.5953" gradientUnits="userSpaceOnUse">
<stop/>
<stop offset="1" stop-color="white"/>
</linearGradient>
<linearGradient id="paint25_linear_51_2" x1="90.2004" y1="117.575" x2="19.1938" y2="-64.5953" gradientUnits="userSpaceOnUse">
<stop stop-color="#97C3F9"/>
<stop offset="1" stop-color="#93C1F9"/>
</linearGradient>
<linearGradient id="paint26_linear_51_2" x1="116.603" y1="107.284" x2="45.5954" y2="-74.8859" gradientUnits="userSpaceOnUse">
<stop/>
<stop offset="1" stop-color="white"/>
</linearGradient>
<linearGradient id="paint27_linear_51_2" x1="116.603" y1="107.284" x2="45.5954" y2="-74.8859" gradientUnits="userSpaceOnUse">
<stop stop-color="#97C3F9"/>
<stop offset="1" stop-color="#93C1F9"/>
</linearGradient>
<linearGradient id="paint28_linear_51_2" x1="143.007" y1="96.9923" x2="72.0006" y2="-85.1786" gradientUnits="userSpaceOnUse">
<stop/>
<stop offset="1" stop-color="white"/>
</linearGradient>
<linearGradient id="paint29_linear_51_2" x1="143.007" y1="96.9923" x2="72.0006" y2="-85.1786" gradientUnits="userSpaceOnUse">
<stop stop-color="#97C3F9"/>
<stop offset="1" stop-color="#93C1F9"/>
</linearGradient>
<linearGradient id="paint30_linear_51_2" x1="28.3828" y1="141.671" x2="-42.626" y2="-40.5009" gradientUnits="userSpaceOnUse">
<stop/>
<stop offset="1" stop-color="white"/>
</linearGradient>
<linearGradient id="paint31_linear_51_2" x1="28.3828" y1="141.671" x2="-42.626" y2="-40.5009" gradientUnits="userSpaceOnUse">
<stop stop-color="#97C3F9"/>
<stop offset="1" stop-color="#93C1F9"/>
</linearGradient>
<linearGradient id="paint32_linear_51_2" x1="54.7865" y1="131.379" x2="-16.2217" y2="-50.7931" gradientUnits="userSpaceOnUse">
<stop/>
<stop offset="1" stop-color="white"/>
</linearGradient>
<linearGradient id="paint33_linear_51_2" x1="54.7865" y1="131.379" x2="-16.2217" y2="-50.7931" gradientUnits="userSpaceOnUse">
<stop stop-color="#97C3F9"/>
<stop offset="1" stop-color="#93C1F9"/>
</linearGradient>
<linearGradient id="paint34_linear_51_2" x1="81.1901" y1="121.088" x2="10.182" y2="-61.0847" gradientUnits="userSpaceOnUse">
<stop/>
<stop offset="1" stop-color="white"/>
</linearGradient>
<linearGradient id="paint35_linear_51_2" x1="81.1901" y1="121.088" x2="10.182" y2="-61.0847" gradientUnits="userSpaceOnUse">
<stop stop-color="#97C3F9"/>
<stop offset="1" stop-color="#93C1F9"/>
</linearGradient>
<linearGradient id="paint36_linear_51_2" x1="107.593" y1="110.796" x2="36.5839" y2="-71.3754" gradientUnits="userSpaceOnUse">
<stop/>
<stop offset="1" stop-color="white"/>
</linearGradient>
<linearGradient id="paint37_linear_51_2" x1="107.593" y1="110.796" x2="36.5839" y2="-71.3754" gradientUnits="userSpaceOnUse">
<stop stop-color="#97C3F9"/>
<stop offset="1" stop-color="#93C1F9"/>
</linearGradient>
<linearGradient id="paint38_linear_51_2" x1="133.997" y1="100.504" x2="62.9889" y2="-81.6683" gradientUnits="userSpaceOnUse">
<stop/>
<stop offset="1" stop-color="white"/>
</linearGradient>
<linearGradient id="paint39_linear_51_2" x1="133.997" y1="100.504" x2="62.9889" y2="-81.6683" gradientUnits="userSpaceOnUse">
<stop stop-color="#97C3F9"/>
<stop offset="1" stop-color="#93C1F9"/>
</linearGradient>
<linearGradient id="paint40_linear_51_2" x1="19.3725" y1="145.182" x2="-51.6333" y2="-36.9869" gradientUnits="userSpaceOnUse">
<stop/>
<stop offset="1" stop-color="white"/>
</linearGradient>
<linearGradient id="paint41_linear_51_2" x1="19.3725" y1="145.182" x2="-51.6333" y2="-36.9869" gradientUnits="userSpaceOnUse">
<stop stop-color="#97C3F9"/>
<stop offset="1" stop-color="#93C1F9"/>
</linearGradient>
<linearGradient id="paint42_linear_51_2" x1="45.7762" y1="134.89" x2="-25.2291" y2="-47.2789" gradientUnits="userSpaceOnUse">
<stop/>
<stop offset="1" stop-color="white"/>
</linearGradient>
<linearGradient id="paint43_linear_51_2" x1="45.7762" y1="134.89" x2="-25.2291" y2="-47.2789" gradientUnits="userSpaceOnUse">
<stop stop-color="#97C3F9"/>
<stop offset="1" stop-color="#93C1F9"/>
</linearGradient>
<linearGradient id="paint44_linear_51_2" x1="72.1797" y1="124.599" x2="1.17455" y2="-57.5702" gradientUnits="userSpaceOnUse">
<stop/>
<stop offset="1" stop-color="white"/>
</linearGradient>
<linearGradient id="paint45_linear_51_2" x1="72.1797" y1="124.599" x2="1.17455" y2="-57.5702" gradientUnits="userSpaceOnUse">
<stop stop-color="#97C3F9"/>
<stop offset="1" stop-color="#93C1F9"/>
</linearGradient>
<linearGradient id="paint46_linear_51_2" x1="98.5832" y1="114.307" x2="27.5767" y2="-67.8607" gradientUnits="userSpaceOnUse">
<stop/>
<stop offset="1" stop-color="white"/>
</linearGradient>
<linearGradient id="paint47_linear_51_2" x1="98.5832" y1="114.307" x2="27.5767" y2="-67.8607" gradientUnits="userSpaceOnUse">
<stop stop-color="#97C3F9"/>
<stop offset="1" stop-color="#93C1F9"/>
</linearGradient>
<linearGradient id="paint48_linear_51_2" x1="124.987" y1="104.016" x2="53.9815" y2="-78.1533" gradientUnits="userSpaceOnUse">
<stop/>
<stop offset="1" stop-color="white"/>
</linearGradient>
<linearGradient id="paint49_linear_51_2" x1="124.987" y1="104.016" x2="53.9815" y2="-78.1533" gradientUnits="userSpaceOnUse">
<stop stop-color="#97C3F9"/>
<stop offset="1" stop-color="#93C1F9"/>
</linearGradient>
</defs>
</svg>
